<?xml version="1.0" encoding="utf-8"?>
<svg xmlns="http://www.w3.org/2000/svg" xmlns:xlink="http://www.w3.org/1999/xlink" style="margin: auto; background: none; display: block; shape-rendering: auto;" width="200px" height="200px" viewBox="0 0 100 100" preserveAspectRatio="xMidYMid">
<g transform="rotate(0 50 50)">
  <rect x="45" y="21.5" rx="4.8100000000000005" ry="4.8100000000000005" width="10" height="13" fill="#fe718d">
    <animate attributeName="opacity" values="1;0" keyTimes="0;1" dur="1.9607843137254901s" begin="-1.8518518518518519s" repeatCount="indefinite"></animate>
  </rect>
</g><g transform="rotate(20 50 50)">
  <rect x="45" y="21.5" rx="4.8100000000000005" ry="4.8100000000000005" width="10" height="13" fill="#f47e60">
    <animate attributeName="opacity" values="1;0" keyTimes="0;1" dur="1.9607843137254901s" begin="-1.7429193899782136s" repeatCount="indefinite"></animate>
  </rect>
</g><g transform="rotate(40 50 50)">
  <rect x="45" y="21.5" rx="4.8100000000000005" ry="4.8100000000000005" width="10" height="13" fill="#f8b26a">
    <animate attributeName="opacity" values="1;0" keyTimes="0;1" dur="1.9607843137254901s" begin="-1.6339869281045751s" repeatCount="indefinite"></animate>
  </rect>
</g><g transform="rotate(60 50 50)">
  <rect x="45" y="21.5" rx="4.8100000000000005" ry="4.8100000000000005" width="10" height="13" fill="#abbd81">
    <animate attributeName="opacity" values="1;0" keyTimes="0;1" dur="1.9607843137254901s" begin="-1.5250544662309369s" repeatCount="indefinite"></animate>
  </rect>
</g><g transform="rotate(80 50 50)">
  <rect x="45" y="21.5" rx="4.8100000000000005" ry="4.8100000000000005" width="10" height="13" fill="#849b87">
    <animate attributeName="opacity" values="1;0" keyTimes="0;1" dur="1.9607843137254901s" begin="-1.4161220043572986s" repeatCount="indefinite"></animate>
  </rect>
</g><g transform="rotate(100 50 50)">
  <rect x="45" y="21.5" rx="4.8100000000000005" ry="4.8100000000000005" width="10" height="13" fill="#6492ac">
    <animate attributeName="opacity" values="1;0" keyTimes="0;1" dur="1.9607843137254901s" begin="-1.3071895424836601s" repeatCount="indefinite"></animate>
  </rect>
</g><g transform="rotate(120 50 50)">
  <rect x="45" y="21.5" rx="4.8100000000000005" ry="4.8100000000000005" width="10" height="13" fill="#637cb5">
    <animate attributeName="opacity" values="1;0" keyTimes="0;1" dur="1.9607843137254901s" begin="-1.198257080610022s" repeatCount="indefinite"></animate>
  </rect>
</g><g transform="rotate(140 50 50)">
  <rect x="45" y="21.5" rx="4.8100000000000005" ry="4.8100000000000005" width="10" height="13" fill="#6a63b6">
    <animate attributeName="opacity" values="1;0" keyTimes="0;1" dur="1.9607843137254901s" begin="-1.0893246187363834s" repeatCount="indefinite"></animate>
  </rect>
</g><g transform="rotate(160 50 50)">
  <rect x="45" y="21.5" rx="4.8100000000000005" ry="4.8100000000000005" width="10" height="13" fill="#fe718d">
    <animate attributeName="opacity" values="1;0" keyTimes="0;1" dur="1.9607843137254901s" begin="-0.9803921568627452s" repeatCount="indefinite"></animate>
  </rect>
</g><g transform="rotate(180 50 50)">
  <rect x="45" y="21.5" rx="4.8100000000000005" ry="4.8100000000000005" width="10" height="13" fill="#f47e60">
    <animate attributeName="opacity" values="1;0" keyTimes="0;1" dur="1.9607843137254901s" begin="-0.8714596949891068s" repeatCount="indefinite"></animate>
  </rect>
</g><g transform="rotate(200 50 50)">
  <rect x="45" y="21.5" rx="4.8100000000000005" ry="4.8100000000000005" width="10" height="13" fill="#f8b26a">
    <animate attributeName="opacity" values="1;0" keyTimes="0;1" dur="1.9607843137254901s" begin="-0.7625272331154684s" repeatCount="indefinite"></animate>
  </rect>
</g><g transform="rotate(220 50 50)">
  <rect x="45" y="21.5" rx="4.8100000000000005" ry="4.8100000000000005" width="10" height="13" fill="#abbd81">
    <animate attributeName="opacity" values="1;0" keyTimes="0;1" dur="1.9607843137254901s" begin="-0.6535947712418301s" repeatCount="indefinite"></animate>
  </rect>
</g><g transform="rotate(240 50 50)">
  <rect x="45" y="21.5" rx="4.8100000000000005" ry="4.8100000000000005" width="10" height="13" fill="#849b87">
    <animate attributeName="opacity" values="1;0" keyTimes="0;1" dur="1.9607843137254901s" begin="-0.5446623093681917s" repeatCount="indefinite"></animate>
  </rect>
</g><g transform="rotate(260 50 50)">
  <rect x="45" y="21.5" rx="4.8100000000000005" ry="4.8100000000000005" width="10" height="13" fill="#6492ac">
    <animate attributeName="opacity" values="1;0" keyTimes="0;1" dur="1.9607843137254901s" begin="-0.4357298474945534s" repeatCount="indefinite"></animate>
  </rect>
</g><g transform="rotate(280 50 50)">
  <rect x="45" y="21.5" rx="4.8100000000000005" ry="4.8100000000000005" width="10" height="13" fill="#637cb5">
    <animate attributeName="opacity" values="1;0" keyTimes="0;1" dur="1.9607843137254901s" begin="-0.32679738562091504s" repeatCount="indefinite"></animate>
  </rect>
</g><g transform="rotate(300 50 50)">
  <rect x="45" y="21.5" rx="4.8100000000000005" ry="4.8100000000000005" width="10" height="13" fill="#6a63b6">
    <animate attributeName="opacity" values="1;0" keyTimes="0;1" dur="1.9607843137254901s" begin="-0.2178649237472767s" repeatCount="indefinite"></animate>
  </rect>
</g><g transform="rotate(320 50 50)">
  <rect x="45" y="21.5" rx="4.8100000000000005" ry="4.8100000000000005" width="10" height="13" fill="#fe718d">
    <animate attributeName="opacity" values="1;0" keyTimes="0;1" dur="1.9607843137254901s" begin="-0.10893246187363835s" repeatCount="indefinite"></animate>
  </rect>
</g><g transform="rotate(340 50 50)">
  <rect x="45" y="21.5" rx="4.8100000000000005" ry="4.8100000000000005" width="10" height="13" fill="#f47e60">
    <animate attributeName="opacity" values="1;0" keyTimes="0;1" dur="1.9607843137254901s" begin="0s" repeatCount="indefinite"></animate>
  </rect>
</g>
<!-- [ldio] generated by https://loading.io/ --></svg>